G75*
%MOIN*%
%OFA0B0*%
%FSLAX25Y25*%
%IPPOS*%
%LPD*%
%AMOC8*
5,1,8,0,0,1.08239X$1,22.5*
%
%ADD10R,0.05000X0.02200*%
%ADD11R,0.02200X0.05000*%
%ADD12R,0.05118X0.06299*%
%ADD13R,0.06299X0.05118*%
%ADD14R,0.05118X0.05906*%
%ADD15R,0.04724X0.04724*%
D10*
X0082430Y0034559D03*
X0082430Y0037708D03*
X0082430Y0040858D03*
X0082430Y0044008D03*
X0082430Y0047157D03*
X0082430Y0050307D03*
X0082430Y0053456D03*
X0082430Y0056606D03*
X0116230Y0056606D03*
X0116230Y0053456D03*
X0116230Y0050307D03*
X0116230Y0047157D03*
X0116230Y0044008D03*
X0116230Y0040858D03*
X0116230Y0037708D03*
X0116230Y0034559D03*
D11*
X0110353Y0028682D03*
X0107204Y0028682D03*
X0104054Y0028682D03*
X0100904Y0028682D03*
X0097755Y0028682D03*
X0094605Y0028682D03*
X0091456Y0028682D03*
X0088306Y0028682D03*
X0088306Y0062482D03*
X0091456Y0062482D03*
X0094605Y0062482D03*
X0097755Y0062482D03*
X0100904Y0062482D03*
X0104054Y0062482D03*
X0107204Y0062482D03*
X0110353Y0062482D03*
D12*
X0103070Y0084082D03*
X0095589Y0084082D03*
D13*
X0074330Y0048823D03*
X0074330Y0041342D03*
X0058830Y0041342D03*
X0058830Y0048823D03*
X0041830Y0048823D03*
X0041830Y0041342D03*
X0025330Y0041342D03*
X0025330Y0048823D03*
X0123830Y0048823D03*
X0123830Y0041342D03*
X0140830Y0041342D03*
X0140830Y0048823D03*
X0157830Y0048823D03*
X0157830Y0041342D03*
X0174830Y0041342D03*
X0174830Y0048823D03*
D14*
X0103070Y0072582D03*
X0095589Y0072582D03*
D15*
X0019330Y0008949D03*
X0019330Y0017216D03*
X0048830Y0017216D03*
X0048830Y0008949D03*
X0078830Y0008949D03*
X0078830Y0017216D03*
X0108830Y0017216D03*
X0108830Y0008949D03*
X0138830Y0008949D03*
X0138830Y0017216D03*
X0168830Y0017216D03*
X0168830Y0008949D03*
X0069963Y0072082D03*
X0061696Y0072082D03*
M02*
