G75*
%MOIN*%
%OFA0B0*%
%FSLAX25Y25*%
%IPPOS*%
%LPD*%
%AMOC8*
5,1,8,0,0,1.08239X$1,22.5*
%
%ADD10C,0.00000*%
%ADD11OC8,0.06300*%
%ADD12R,0.05000X0.02200*%
%ADD13R,0.02200X0.05000*%
%ADD14OC8,0.05200*%
%ADD15OC8,0.07400*%
%ADD16C,0.05200*%
%ADD17R,0.05118X0.06299*%
%ADD18R,0.06299X0.05118*%
%ADD19R,0.05118X0.05906*%
%ADD20R,0.04724X0.04724*%
%ADD21C,0.01000*%
%ADD22C,0.02800*%
%ADD23C,0.03569*%
%ADD24C,0.01600*%
D10*
X0014830Y0003582D02*
X0014830Y0094543D01*
X0185530Y0094543D01*
X0185530Y0003582D01*
X0014830Y0003582D01*
D11*
X0089330Y0072582D03*
X0109330Y0072582D03*
D12*
X0116230Y0056606D03*
X0116230Y0053456D03*
X0116230Y0050307D03*
X0116230Y0047157D03*
X0116230Y0044008D03*
X0116230Y0040858D03*
X0116230Y0037708D03*
X0116230Y0034559D03*
X0082430Y0034559D03*
X0082430Y0037708D03*
X0082430Y0040858D03*
X0082430Y0044008D03*
X0082430Y0047157D03*
X0082430Y0050307D03*
X0082430Y0053456D03*
X0082430Y0056606D03*
D13*
X0088306Y0062482D03*
X0091456Y0062482D03*
X0094605Y0062482D03*
X0097755Y0062482D03*
X0100904Y0062482D03*
X0104054Y0062482D03*
X0107204Y0062482D03*
X0110353Y0062482D03*
X0110353Y0028682D03*
X0107204Y0028682D03*
X0104054Y0028682D03*
X0100904Y0028682D03*
X0097755Y0028682D03*
X0094605Y0028682D03*
X0091456Y0028682D03*
X0088306Y0028682D03*
D14*
X0074330Y0025082D03*
X0085330Y0018082D03*
X0085330Y0008082D03*
X0115330Y0008082D03*
X0115330Y0018082D03*
X0123830Y0025082D03*
X0140830Y0025082D03*
X0145330Y0018082D03*
X0157830Y0025082D03*
X0174830Y0025082D03*
X0175330Y0018082D03*
X0175330Y0008082D03*
X0145330Y0008082D03*
X0058830Y0025082D03*
X0055330Y0018082D03*
X0041830Y0025082D03*
X0025330Y0025082D03*
X0025330Y0018082D03*
X0025330Y0008082D03*
X0055330Y0008082D03*
X0058830Y0065082D03*
X0074330Y0065082D03*
X0070830Y0078582D03*
X0060830Y0078582D03*
X0079330Y0084082D03*
X0041830Y0065082D03*
X0025330Y0065082D03*
X0119330Y0084082D03*
X0123830Y0065082D03*
X0140830Y0065082D03*
X0157830Y0065082D03*
X0174830Y0065082D03*
D15*
X0177830Y0073582D03*
X0167830Y0073582D03*
X0157830Y0073582D03*
X0147830Y0073582D03*
X0137830Y0073582D03*
X0137830Y0083582D03*
X0147830Y0083582D03*
X0157830Y0083582D03*
X0167830Y0083582D03*
X0177830Y0083582D03*
D16*
X0043330Y0078682D02*
X0043330Y0073482D01*
X0033330Y0073482D02*
X0033330Y0078682D01*
X0023330Y0078682D02*
X0023330Y0073482D01*
D17*
X0095589Y0084082D03*
X0103070Y0084082D03*
D18*
X0123830Y0048823D03*
X0123830Y0041342D03*
X0140830Y0041342D03*
X0140830Y0048823D03*
X0157830Y0048823D03*
X0157830Y0041342D03*
X0174830Y0041342D03*
X0174830Y0048823D03*
X0074330Y0048823D03*
X0074330Y0041342D03*
X0058830Y0041342D03*
X0058830Y0048823D03*
X0041830Y0048823D03*
X0041830Y0041342D03*
X0025330Y0041342D03*
X0025330Y0048823D03*
D19*
X0095589Y0072582D03*
X0103070Y0072582D03*
D20*
X0069963Y0072082D03*
X0061696Y0072082D03*
X0048830Y0017216D03*
X0048830Y0008949D03*
X0019330Y0008949D03*
X0019330Y0017216D03*
X0078830Y0017216D03*
X0078830Y0008949D03*
X0108830Y0008949D03*
X0108830Y0017216D03*
X0138830Y0017216D03*
X0138830Y0008949D03*
X0168830Y0008949D03*
X0168830Y0017216D03*
D21*
X0168830Y0017582D01*
X0174830Y0017582D01*
X0175330Y0018082D01*
X0174830Y0018582D01*
X0174830Y0025082D01*
X0174830Y0041342D01*
X0174830Y0048823D02*
X0174830Y0064582D01*
X0174830Y0065082D01*
X0174830Y0064582D02*
X0164830Y0054582D01*
X0157830Y0049582D02*
X0157830Y0048823D01*
X0157830Y0049582D02*
X0157830Y0065082D01*
X0157830Y0073582D02*
X0144830Y0060582D01*
X0140830Y0065082D02*
X0140830Y0049582D01*
X0140830Y0048823D01*
X0140830Y0049582D02*
X0126830Y0035582D01*
X0123830Y0031582D02*
X0120830Y0034582D01*
X0120830Y0037582D01*
X0123830Y0040582D01*
X0123830Y0041342D01*
X0123830Y0040582D02*
X0128830Y0045582D01*
X0128830Y0072582D01*
X0137830Y0081582D01*
X0137830Y0083582D01*
X0149830Y0091582D02*
X0157830Y0083582D01*
X0149830Y0091582D02*
X0080830Y0091582D01*
X0074830Y0085582D01*
X0074830Y0082582D01*
X0075830Y0081582D01*
X0075830Y0078582D01*
X0086830Y0067582D01*
X0089830Y0067582D01*
X0091830Y0065582D01*
X0091830Y0062582D01*
X0091456Y0062482D01*
X0094605Y0062482D02*
X0094830Y0062582D01*
X0094830Y0065582D01*
X0096830Y0067582D01*
X0111830Y0067582D01*
X0114830Y0070582D01*
X0114830Y0077582D01*
X0111830Y0080582D01*
X0116830Y0080582D02*
X0107830Y0089582D01*
X0099830Y0089582D01*
X0094830Y0084582D01*
X0095589Y0084082D01*
X0094830Y0084582D02*
X0079830Y0084582D01*
X0079330Y0084082D01*
X0070830Y0078582D02*
X0070830Y0072582D01*
X0069963Y0072082D01*
X0070830Y0071582D01*
X0070830Y0068582D01*
X0074330Y0065082D01*
X0074830Y0064582D01*
X0074830Y0049582D01*
X0074330Y0048823D01*
X0082430Y0050307D02*
X0082830Y0050582D01*
X0090830Y0050582D01*
X0090830Y0055582D01*
X0097830Y0057582D02*
X0097830Y0061582D01*
X0097755Y0062482D01*
X0116230Y0053456D02*
X0116830Y0053582D01*
X0119830Y0053582D01*
X0120830Y0054582D01*
X0120830Y0061582D01*
X0116830Y0065582D01*
X0116830Y0080582D01*
X0109330Y0072582D02*
X0103070Y0072582D01*
X0102830Y0072582D01*
X0102830Y0083582D01*
X0103070Y0084082D01*
X0095589Y0072582D02*
X0089330Y0072582D01*
X0061696Y0072082D02*
X0060830Y0072582D01*
X0060830Y0078582D01*
X0058830Y0065082D02*
X0058830Y0049582D01*
X0058830Y0048823D01*
X0058830Y0049582D02*
X0063830Y0044582D01*
X0063830Y0043582D01*
X0071830Y0035582D01*
X0071830Y0030582D01*
X0074830Y0025582D02*
X0074330Y0025082D01*
X0074830Y0025582D02*
X0074830Y0040582D01*
X0074330Y0041342D01*
X0074830Y0040582D02*
X0081830Y0040582D01*
X0082430Y0040858D01*
X0082830Y0043582D02*
X0082430Y0044008D01*
X0082830Y0043582D02*
X0093830Y0043582D01*
X0095830Y0045582D01*
X0090830Y0050582D01*
X0087830Y0047582D02*
X0082830Y0047582D01*
X0082430Y0047157D01*
X0095830Y0045582D02*
X0097830Y0047582D01*
X0115830Y0047582D01*
X0116230Y0047157D01*
X0123830Y0048823D02*
X0123830Y0065082D01*
X0150830Y0042582D02*
X0157830Y0049582D01*
X0157830Y0041342D02*
X0157830Y0025082D01*
X0145330Y0018082D02*
X0144830Y0017582D01*
X0138830Y0017582D01*
X0138830Y0017216D01*
X0138830Y0008949D02*
X0138830Y0008582D01*
X0144830Y0008582D01*
X0145330Y0008082D01*
X0168830Y0008582D02*
X0168830Y0008949D01*
X0168830Y0008582D02*
X0174830Y0008582D01*
X0175330Y0008082D01*
X0140830Y0025082D02*
X0140830Y0041342D01*
X0123830Y0031582D02*
X0123830Y0025082D01*
X0120830Y0029582D02*
X0110830Y0029582D01*
X0110353Y0028682D01*
X0107204Y0028682D02*
X0106830Y0028582D01*
X0106830Y0023582D01*
X0104054Y0028682D02*
X0103830Y0029582D01*
X0103830Y0035582D01*
X0100830Y0037582D02*
X0104830Y0041582D01*
X0107830Y0041582D01*
X0110830Y0038582D02*
X0110830Y0036582D01*
X0112830Y0034582D01*
X0115830Y0034582D01*
X0116230Y0034559D01*
X0116830Y0037582D02*
X0116230Y0037708D01*
X0116830Y0037582D02*
X0120830Y0037582D01*
X0104830Y0044582D02*
X0097830Y0037582D01*
X0097830Y0029582D01*
X0097755Y0028682D01*
X0100904Y0028682D02*
X0100830Y0029582D01*
X0100830Y0037582D01*
X0099830Y0044582D02*
X0092830Y0037582D01*
X0082830Y0037582D01*
X0082430Y0037708D01*
X0058830Y0041342D02*
X0058830Y0025082D01*
X0058830Y0024582D01*
X0065830Y0017582D01*
X0078830Y0017582D01*
X0078830Y0017216D01*
X0078830Y0017582D02*
X0084830Y0017582D01*
X0085330Y0018082D01*
X0078830Y0008949D02*
X0078830Y0008582D01*
X0084830Y0008582D01*
X0085330Y0008082D01*
X0108830Y0008582D02*
X0108830Y0008949D01*
X0108830Y0008582D02*
X0114830Y0008582D01*
X0115330Y0008082D01*
X0108830Y0017216D02*
X0108830Y0017582D01*
X0114830Y0017582D01*
X0115330Y0018082D01*
X0055330Y0018082D02*
X0054830Y0017582D01*
X0048830Y0017582D01*
X0048830Y0017216D01*
X0048830Y0017582D02*
X0041830Y0024582D01*
X0041830Y0025082D01*
X0041830Y0041342D01*
X0041830Y0048582D02*
X0035830Y0048582D01*
X0041830Y0048582D02*
X0041830Y0048823D01*
X0041830Y0065082D01*
X0025830Y0064582D02*
X0025330Y0065082D01*
X0025830Y0064582D02*
X0025830Y0049582D01*
X0025330Y0048823D01*
X0025330Y0041342D02*
X0025830Y0040582D01*
X0025830Y0025582D01*
X0025330Y0025082D01*
X0025830Y0024582D01*
X0025830Y0018582D01*
X0025330Y0018082D01*
X0024830Y0017582D01*
X0019830Y0017582D01*
X0019330Y0017216D01*
X0019330Y0008949D02*
X0019830Y0008582D01*
X0024830Y0008582D01*
X0025330Y0008082D01*
X0048830Y0008582D02*
X0048830Y0008949D01*
X0048830Y0008582D02*
X0054830Y0008582D01*
X0055330Y0008082D01*
D22*
X0071830Y0030582D03*
X0099830Y0044582D03*
X0104830Y0044582D03*
X0107830Y0041582D03*
X0110830Y0038582D03*
X0103830Y0035582D03*
X0120830Y0029582D03*
X0126830Y0035582D03*
X0106830Y0023582D03*
X0150830Y0042582D03*
X0164830Y0054582D03*
X0144830Y0060582D03*
X0111830Y0080582D03*
X0097830Y0057582D03*
X0090830Y0055582D03*
X0087830Y0047582D03*
X0035830Y0048582D03*
D23*
X0049830Y0055082D03*
X0050330Y0073082D03*
X0051830Y0089582D03*
X0086330Y0088082D03*
X0124830Y0072082D03*
X0127330Y0081082D03*
X0162830Y0090082D03*
D24*
X0127330Y0081082D02*
X0127330Y0074582D01*
X0124830Y0072082D01*
X0051830Y0089582D02*
X0050330Y0088082D01*
X0050330Y0073082D01*
X0050330Y0055082D01*
X0049830Y0055082D01*
M02*
