G75*
%MOIN*%
%OFA0B0*%
%FSLAX25Y25*%
%IPPOS*%
%LPD*%
%AMOC8*
5,1,8,0,0,1.08239X$1,22.5*
%
%ADD10OC8,0.07100*%
%ADD11OC8,0.06000*%
%ADD12OC8,0.08200*%
%ADD13C,0.06000*%
%ADD14C,0.03600*%
%ADD15C,0.04369*%
D10*
X0089330Y0072582D03*
X0109330Y0072582D03*
D11*
X0025330Y0008082D03*
X0025330Y0018082D03*
X0025330Y0025082D03*
X0041830Y0025082D03*
X0055330Y0018082D03*
X0058830Y0025082D03*
X0074330Y0025082D03*
X0085330Y0018082D03*
X0085330Y0008082D03*
X0115330Y0008082D03*
X0115330Y0018082D03*
X0123830Y0025082D03*
X0140830Y0025082D03*
X0145330Y0018082D03*
X0157830Y0025082D03*
X0174830Y0025082D03*
X0175330Y0018082D03*
X0175330Y0008082D03*
X0145330Y0008082D03*
X0055330Y0008082D03*
X0058830Y0065082D03*
X0074330Y0065082D03*
X0070830Y0078582D03*
X0060830Y0078582D03*
X0079330Y0084082D03*
X0041830Y0065082D03*
X0025330Y0065082D03*
X0119330Y0084082D03*
X0123830Y0065082D03*
X0140830Y0065082D03*
X0157830Y0065082D03*
X0174830Y0065082D03*
D12*
X0177830Y0073582D03*
X0167830Y0073582D03*
X0157830Y0073582D03*
X0147830Y0073582D03*
X0137830Y0073582D03*
X0137830Y0083582D03*
X0147830Y0083582D03*
X0157830Y0083582D03*
X0167830Y0083582D03*
X0177830Y0083582D03*
D13*
X0043330Y0078682D02*
X0043330Y0073482D01*
X0033330Y0073482D02*
X0033330Y0078682D01*
X0023330Y0078682D02*
X0023330Y0073482D01*
D14*
X0035830Y0048582D03*
X0071830Y0030582D03*
X0099830Y0044582D03*
X0104830Y0044582D03*
X0107830Y0041582D03*
X0110830Y0038582D03*
X0103830Y0035582D03*
X0120830Y0029582D03*
X0126830Y0035582D03*
X0106830Y0023582D03*
X0150830Y0042582D03*
X0164830Y0054582D03*
X0144830Y0060582D03*
X0111830Y0080582D03*
X0097830Y0057582D03*
X0090830Y0055582D03*
X0087830Y0047582D03*
D15*
X0049830Y0055082D03*
X0050330Y0073082D03*
X0051830Y0089582D03*
X0086330Y0088082D03*
X0124830Y0072082D03*
X0127330Y0081082D03*
X0162830Y0090082D03*
M02*
