G75*
%MOIN*%
%OFA0B0*%
%FSLAX25Y25*%
%IPPOS*%
%LPD*%
%AMOC8*
5,1,8,0,0,1.08239X$1,22.5*
%
%ADD10OC8,0.06300*%
%ADD11OC8,0.05200*%
%ADD12OC8,0.07400*%
%ADD13C,0.05200*%
%ADD14C,0.01000*%
%ADD15C,0.02800*%
%ADD16C,0.01600*%
%ADD17C,0.03569*%
%ADD18C,0.01200*%
D10*
X0089330Y0072582D03*
X0109330Y0072582D03*
D11*
X0123830Y0065082D03*
X0140830Y0065082D03*
X0157830Y0065082D03*
X0174830Y0065082D03*
X0119330Y0084082D03*
X0079330Y0084082D03*
X0070830Y0078582D03*
X0060830Y0078582D03*
X0058830Y0065082D03*
X0074330Y0065082D03*
X0041830Y0065082D03*
X0025330Y0065082D03*
X0025330Y0025082D03*
X0025330Y0018082D03*
X0041830Y0025082D03*
X0055330Y0018082D03*
X0058830Y0025082D03*
X0074330Y0025082D03*
X0085330Y0018082D03*
X0085330Y0008082D03*
X0115330Y0008082D03*
X0115330Y0018082D03*
X0123830Y0025082D03*
X0140830Y0025082D03*
X0145330Y0018082D03*
X0157830Y0025082D03*
X0174830Y0025082D03*
X0175330Y0018082D03*
X0175330Y0008082D03*
X0145330Y0008082D03*
X0055330Y0008082D03*
X0025330Y0008082D03*
D12*
X0137830Y0073582D03*
X0147830Y0073582D03*
X0157830Y0073582D03*
X0167830Y0073582D03*
X0177830Y0073582D03*
X0177830Y0083582D03*
X0167830Y0083582D03*
X0157830Y0083582D03*
X0147830Y0083582D03*
X0137830Y0083582D03*
D13*
X0043330Y0078682D02*
X0043330Y0073482D01*
X0033330Y0073482D02*
X0033330Y0078682D01*
X0023330Y0078682D02*
X0023330Y0073482D01*
D14*
X0023330Y0076082D02*
X0026830Y0072582D01*
X0020830Y0066582D01*
X0020830Y0029582D01*
X0067830Y0029582D01*
X0071830Y0025582D01*
X0073830Y0025582D01*
X0074330Y0025082D01*
X0076830Y0022582D01*
X0102830Y0022582D01*
X0104830Y0020582D01*
X0111830Y0020582D01*
X0115830Y0024582D01*
X0123830Y0024582D01*
X0123830Y0025082D01*
X0120830Y0029582D02*
X0104830Y0029582D01*
X0100830Y0033582D01*
X0050830Y0033582D01*
X0035830Y0048582D01*
X0051830Y0038582D02*
X0025330Y0065082D01*
X0026830Y0072582D02*
X0038830Y0060582D01*
X0086830Y0060582D01*
X0086830Y0055582D01*
X0087830Y0054582D01*
X0087830Y0047582D01*
X0099830Y0044582D02*
X0112830Y0057582D01*
X0146830Y0057582D01*
X0147830Y0058582D01*
X0147830Y0073582D01*
X0137830Y0073582D02*
X0133830Y0077582D01*
X0075830Y0077582D01*
X0063830Y0065582D01*
X0058830Y0065582D01*
X0058830Y0065082D01*
X0040830Y0083582D02*
X0033330Y0076082D01*
X0040830Y0083582D02*
X0078830Y0083582D01*
X0079330Y0084082D01*
X0086830Y0072582D02*
X0089330Y0072582D01*
X0086830Y0072582D02*
X0086830Y0060582D01*
X0090830Y0055582D02*
X0107830Y0072582D01*
X0109330Y0072582D01*
X0111830Y0080582D02*
X0111830Y0089082D01*
X0141830Y0089082D01*
X0147830Y0083582D01*
X0167830Y0073582D02*
X0167830Y0043582D01*
X0162830Y0038582D01*
X0110830Y0038582D01*
X0051830Y0038582D01*
X0071830Y0030582D02*
X0099830Y0030582D01*
X0106830Y0023582D01*
X0115330Y0018082D02*
X0117830Y0020582D01*
X0136830Y0020582D01*
X0140830Y0024582D01*
X0140830Y0025082D01*
X0145330Y0018082D02*
X0151830Y0024582D01*
X0157830Y0024582D01*
X0157830Y0025082D01*
X0159830Y0032582D02*
X0179830Y0052582D01*
X0179830Y0073582D01*
X0177830Y0073582D01*
X0144830Y0060582D02*
X0127830Y0060582D01*
X0123830Y0064582D01*
X0123830Y0065082D01*
X0123830Y0064582D02*
X0104830Y0064582D01*
X0097830Y0057582D01*
X0104830Y0044582D02*
X0114830Y0054582D01*
X0164830Y0054582D01*
X0150830Y0042582D02*
X0108830Y0042582D01*
X0107830Y0041582D01*
X0103830Y0035582D02*
X0126830Y0035582D01*
X0123830Y0032582D02*
X0159830Y0032582D01*
X0123830Y0032582D02*
X0120830Y0029582D01*
D15*
X0120830Y0029582D03*
X0126830Y0035582D03*
X0110830Y0038582D03*
X0107830Y0041582D03*
X0104830Y0044582D03*
X0099830Y0044582D03*
X0087830Y0047582D03*
X0090830Y0055582D03*
X0097830Y0057582D03*
X0103830Y0035582D03*
X0106830Y0023582D03*
X0071830Y0030582D03*
X0035830Y0048582D03*
X0111830Y0080582D03*
X0144830Y0060582D03*
X0164830Y0054582D03*
X0150830Y0042582D03*
D16*
X0017630Y0006382D02*
X0017630Y0091743D01*
X0182730Y0091743D01*
X0182730Y0086460D01*
X0180108Y0089082D01*
X0178030Y0089082D01*
X0178030Y0083782D01*
X0177630Y0083782D01*
X0177630Y0083382D01*
X0172330Y0083382D01*
X0168030Y0083382D01*
X0168030Y0083782D01*
X0177630Y0083782D01*
X0177630Y0089082D01*
X0175551Y0089082D01*
X0172830Y0086361D01*
X0170108Y0089082D01*
X0168030Y0089082D01*
X0168030Y0083782D01*
X0167630Y0083782D01*
X0167630Y0089082D01*
X0165551Y0089082D01*
X0162830Y0086361D01*
X0160108Y0089082D01*
X0155551Y0089082D01*
X0152830Y0086361D01*
X0150108Y0089082D01*
X0145551Y0089082D01*
X0145399Y0088930D01*
X0143421Y0090744D01*
X0142782Y0091382D01*
X0142724Y0091382D01*
X0142681Y0091422D01*
X0141780Y0091382D01*
X0110877Y0091382D01*
X0109530Y0090035D01*
X0109530Y0082808D01*
X0109117Y0082395D01*
X0108630Y0081219D01*
X0108630Y0079946D01*
X0108656Y0079882D01*
X0081352Y0079882D01*
X0083730Y0082260D01*
X0083730Y0085905D01*
X0081152Y0088482D01*
X0077507Y0088482D01*
X0074930Y0085905D01*
X0074930Y0085882D01*
X0039877Y0085882D01*
X0038530Y0084535D01*
X0036115Y0082120D01*
X0035822Y0082413D01*
X0034205Y0083082D01*
X0032454Y0083082D01*
X0030837Y0082413D01*
X0029599Y0081175D01*
X0028930Y0079558D01*
X0028930Y0073735D01*
X0027782Y0074882D01*
X0027730Y0074935D01*
X0027730Y0079558D01*
X0027060Y0081175D01*
X0025822Y0082413D01*
X0024205Y0083082D01*
X0022454Y0083082D01*
X0020837Y0082413D01*
X0019599Y0081175D01*
X0018930Y0079558D01*
X0018930Y0072607D01*
X0019599Y0070990D01*
X0020792Y0069797D01*
X0019877Y0068882D01*
X0018530Y0067535D01*
X0018530Y0028630D01*
X0019877Y0027282D01*
X0021307Y0027282D01*
X0020930Y0026905D01*
X0020930Y0023260D01*
X0022607Y0021582D01*
X0020930Y0019905D01*
X0020930Y0016260D01*
X0023507Y0013682D01*
X0027152Y0013682D01*
X0029730Y0016260D01*
X0029730Y0019905D01*
X0028052Y0021582D01*
X0029730Y0023260D01*
X0029730Y0026905D01*
X0029352Y0027282D01*
X0037807Y0027282D01*
X0037430Y0026905D01*
X0037430Y0023260D01*
X0040007Y0020682D01*
X0043652Y0020682D01*
X0046230Y0023260D01*
X0046230Y0026905D01*
X0045852Y0027282D01*
X0054807Y0027282D01*
X0054430Y0026905D01*
X0054430Y0023260D01*
X0055207Y0022482D01*
X0053507Y0022482D01*
X0050930Y0019905D01*
X0050930Y0016260D01*
X0053507Y0013682D01*
X0057152Y0013682D01*
X0059730Y0016260D01*
X0059730Y0019905D01*
X0058952Y0020682D01*
X0060652Y0020682D01*
X0063230Y0023260D01*
X0063230Y0026905D01*
X0062852Y0027282D01*
X0066877Y0027282D01*
X0069530Y0024630D01*
X0069930Y0024230D01*
X0069930Y0023260D01*
X0072507Y0020682D01*
X0075477Y0020682D01*
X0075877Y0020282D01*
X0081307Y0020282D01*
X0080930Y0019905D01*
X0080930Y0016260D01*
X0083507Y0013682D01*
X0087152Y0013682D01*
X0089730Y0016260D01*
X0089730Y0019905D01*
X0089352Y0020282D01*
X0101877Y0020282D01*
X0102530Y0019630D01*
X0103877Y0018282D01*
X0110930Y0018282D01*
X0110930Y0016260D01*
X0113507Y0013682D01*
X0117152Y0013682D01*
X0119730Y0016260D01*
X0119730Y0018282D01*
X0137782Y0018282D01*
X0140182Y0020682D01*
X0141707Y0020682D01*
X0140930Y0019905D01*
X0140930Y0016260D01*
X0143507Y0013682D01*
X0147152Y0013682D01*
X0149730Y0016260D01*
X0149730Y0019230D01*
X0152782Y0022282D01*
X0154407Y0022282D01*
X0156007Y0020682D01*
X0159652Y0020682D01*
X0162230Y0023260D01*
X0162230Y0026905D01*
X0159652Y0029482D01*
X0156007Y0029482D01*
X0153430Y0026905D01*
X0153430Y0026882D01*
X0150877Y0026882D01*
X0149530Y0025535D01*
X0146477Y0022482D01*
X0144452Y0022482D01*
X0145230Y0023260D01*
X0145230Y0026905D01*
X0142652Y0029482D01*
X0139007Y0029482D01*
X0136430Y0026905D01*
X0136430Y0023435D01*
X0135877Y0022882D01*
X0127852Y0022882D01*
X0128230Y0023260D01*
X0128230Y0026905D01*
X0125652Y0029482D01*
X0124030Y0029482D01*
X0124030Y0029530D01*
X0124782Y0030282D01*
X0160782Y0030282D01*
X0180782Y0050282D01*
X0182130Y0051630D01*
X0182130Y0070104D01*
X0182730Y0070705D01*
X0182730Y0006382D01*
X0179730Y0006382D01*
X0179730Y0008082D01*
X0175330Y0008082D01*
X0175330Y0008082D01*
X0179730Y0008082D01*
X0179730Y0009905D01*
X0177152Y0012482D01*
X0175330Y0012482D01*
X0175330Y0008083D01*
X0175330Y0008083D01*
X0175330Y0012482D01*
X0173507Y0012482D01*
X0170930Y0009905D01*
X0170930Y0008082D01*
X0170930Y0006382D01*
X0149730Y0006382D01*
X0149730Y0008082D01*
X0145330Y0008082D01*
X0145330Y0008082D01*
X0149730Y0008082D01*
X0149730Y0009905D01*
X0147152Y0012482D01*
X0145330Y0012482D01*
X0145330Y0008083D01*
X0145330Y0008083D01*
X0145330Y0012482D01*
X0143507Y0012482D01*
X0140930Y0009905D01*
X0140930Y0008082D01*
X0140930Y0006382D01*
X0119730Y0006382D01*
X0119730Y0008082D01*
X0115330Y0008082D01*
X0115330Y0008082D01*
X0119730Y0008082D01*
X0119730Y0009905D01*
X0117152Y0012482D01*
X0115330Y0012482D01*
X0115330Y0008083D01*
X0115330Y0008083D01*
X0115330Y0012482D01*
X0113507Y0012482D01*
X0110930Y0009905D01*
X0110930Y0008082D01*
X0110930Y0006382D01*
X0089730Y0006382D01*
X0089730Y0008082D01*
X0085330Y0008082D01*
X0085330Y0008082D01*
X0089730Y0008082D01*
X0089730Y0009905D01*
X0087152Y0012482D01*
X0085330Y0012482D01*
X0085330Y0008083D01*
X0085330Y0008083D01*
X0085330Y0012482D01*
X0083507Y0012482D01*
X0080930Y0009905D01*
X0080930Y0008082D01*
X0080930Y0006382D01*
X0059730Y0006382D01*
X0059730Y0008082D01*
X0055330Y0008082D01*
X0055330Y0008082D01*
X0059730Y0008082D01*
X0059730Y0009905D01*
X0057152Y0012482D01*
X0055330Y0012482D01*
X0055330Y0008083D01*
X0055330Y0008083D01*
X0055330Y0012482D01*
X0053507Y0012482D01*
X0050930Y0009905D01*
X0050930Y0008082D01*
X0050930Y0006382D01*
X0029730Y0006382D01*
X0029730Y0008082D01*
X0025330Y0008082D01*
X0025330Y0008082D01*
X0029730Y0008082D01*
X0029730Y0009905D01*
X0027152Y0012482D01*
X0025330Y0012482D01*
X0025330Y0008083D01*
X0025330Y0008083D01*
X0025330Y0012482D01*
X0023507Y0012482D01*
X0020930Y0009905D01*
X0020930Y0008082D01*
X0020930Y0006382D01*
X0017630Y0006382D01*
X0017630Y0006779D02*
X0020930Y0006779D01*
X0020930Y0008082D02*
X0025329Y0008082D01*
X0025329Y0008082D01*
X0020930Y0008082D01*
X0020930Y0008378D02*
X0017630Y0008378D01*
X0017630Y0009976D02*
X0021001Y0009976D01*
X0022600Y0011575D02*
X0017630Y0011575D01*
X0017630Y0013173D02*
X0182730Y0013173D01*
X0182730Y0011575D02*
X0178060Y0011575D01*
X0175330Y0011575D02*
X0175330Y0011575D01*
X0175330Y0009976D02*
X0175330Y0009976D01*
X0175330Y0008378D02*
X0175330Y0008378D01*
X0175329Y0008082D02*
X0175329Y0008082D01*
X0170930Y0008082D01*
X0175329Y0008082D01*
X0170930Y0008378D02*
X0149730Y0008378D01*
X0149730Y0006779D02*
X0170930Y0006779D01*
X0171001Y0009976D02*
X0149658Y0009976D01*
X0148060Y0011575D02*
X0172600Y0011575D01*
X0173507Y0013682D02*
X0177152Y0013682D01*
X0179730Y0016260D01*
X0179730Y0019905D01*
X0177802Y0021832D01*
X0179230Y0023260D01*
X0179230Y0026905D01*
X0176652Y0029482D01*
X0173007Y0029482D01*
X0170430Y0026905D01*
X0170430Y0023260D01*
X0172357Y0021332D01*
X0170930Y0019905D01*
X0170930Y0016260D01*
X0173507Y0013682D01*
X0172417Y0014772D02*
X0148242Y0014772D01*
X0149730Y0016370D02*
X0170930Y0016370D01*
X0170930Y0017969D02*
X0149730Y0017969D01*
X0150067Y0019568D02*
X0170930Y0019568D01*
X0172191Y0021166D02*
X0160136Y0021166D01*
X0161734Y0022765D02*
X0170925Y0022765D01*
X0170430Y0024363D02*
X0162230Y0024363D01*
X0162230Y0025962D02*
X0170430Y0025962D01*
X0171085Y0027560D02*
X0161574Y0027560D01*
X0159976Y0029159D02*
X0172683Y0029159D01*
X0176976Y0029159D02*
X0182730Y0029159D01*
X0182730Y0030757D02*
X0161257Y0030757D01*
X0162855Y0032356D02*
X0182730Y0032356D01*
X0182730Y0033954D02*
X0164454Y0033954D01*
X0166053Y0035553D02*
X0182730Y0035553D01*
X0182730Y0037151D02*
X0167651Y0037151D01*
X0169250Y0038750D02*
X0182730Y0038750D01*
X0182730Y0040348D02*
X0170848Y0040348D01*
X0172447Y0041947D02*
X0182730Y0041947D01*
X0182730Y0043545D02*
X0174045Y0043545D01*
X0175644Y0045144D02*
X0182730Y0045144D01*
X0182730Y0046742D02*
X0177242Y0046742D01*
X0178841Y0048341D02*
X0182730Y0048341D01*
X0182730Y0049939D02*
X0180439Y0049939D01*
X0182038Y0051538D02*
X0182730Y0051538D01*
X0182730Y0053136D02*
X0182130Y0053136D01*
X0182130Y0054735D02*
X0182730Y0054735D01*
X0182730Y0056333D02*
X0182130Y0056333D01*
X0182130Y0057932D02*
X0182730Y0057932D01*
X0182730Y0059530D02*
X0182130Y0059530D01*
X0182130Y0061129D02*
X0182730Y0061129D01*
X0182730Y0062727D02*
X0182130Y0062727D01*
X0182130Y0064326D02*
X0182730Y0064326D01*
X0182730Y0065924D02*
X0182130Y0065924D01*
X0182130Y0067523D02*
X0182730Y0067523D01*
X0182730Y0069121D02*
X0182130Y0069121D01*
X0177630Y0083508D02*
X0168030Y0083508D01*
X0168030Y0085106D02*
X0167630Y0085106D01*
X0167630Y0086705D02*
X0168030Y0086705D01*
X0168030Y0088303D02*
X0167630Y0088303D01*
X0164773Y0088303D02*
X0160887Y0088303D01*
X0162485Y0086705D02*
X0163174Y0086705D01*
X0154773Y0088303D02*
X0150887Y0088303D01*
X0152485Y0086705D02*
X0153174Y0086705D01*
X0144339Y0089902D02*
X0182730Y0089902D01*
X0182730Y0091501D02*
X0017630Y0091501D01*
X0017630Y0089902D02*
X0109530Y0089902D01*
X0109530Y0088303D02*
X0081331Y0088303D01*
X0082930Y0086705D02*
X0109530Y0086705D01*
X0109530Y0085106D02*
X0083730Y0085106D01*
X0083730Y0083508D02*
X0109530Y0083508D01*
X0108916Y0081909D02*
X0083379Y0081909D01*
X0081781Y0080311D02*
X0108630Y0080311D01*
X0114130Y0082808D02*
X0114130Y0086782D01*
X0115807Y0086782D01*
X0114930Y0085905D01*
X0114930Y0084082D01*
X0114930Y0082260D01*
X0117307Y0079882D01*
X0115003Y0079882D01*
X0115030Y0079946D01*
X0115030Y0081219D01*
X0114542Y0082395D01*
X0114130Y0082808D01*
X0114130Y0083508D02*
X0114930Y0083508D01*
X0114930Y0084082D02*
X0119329Y0084082D01*
X0119329Y0084082D01*
X0114930Y0084082D01*
X0114930Y0085106D02*
X0114130Y0085106D01*
X0114130Y0086705D02*
X0115730Y0086705D01*
X0119330Y0084082D02*
X0123730Y0084082D01*
X0119330Y0084082D01*
X0119330Y0084082D01*
X0123730Y0084082D02*
X0123730Y0082260D01*
X0121352Y0079882D01*
X0133751Y0079882D01*
X0132330Y0081304D01*
X0132330Y0085861D01*
X0133251Y0086782D01*
X0122852Y0086782D01*
X0123730Y0085905D01*
X0123730Y0084082D01*
X0123730Y0083508D02*
X0132330Y0083508D01*
X0132330Y0085106D02*
X0123730Y0085106D01*
X0122930Y0086705D02*
X0133174Y0086705D01*
X0132330Y0081909D02*
X0123379Y0081909D01*
X0121781Y0080311D02*
X0133323Y0080311D01*
X0132330Y0075282D02*
X0132330Y0071304D01*
X0135551Y0068082D01*
X0137607Y0068082D01*
X0136430Y0066905D01*
X0136430Y0063260D01*
X0136807Y0062882D01*
X0128782Y0062882D01*
X0128230Y0063435D01*
X0128230Y0066905D01*
X0125652Y0069482D01*
X0122007Y0069482D01*
X0119430Y0066905D01*
X0119430Y0066882D01*
X0103877Y0066882D01*
X0102530Y0065535D01*
X0097777Y0060782D01*
X0097193Y0060782D01*
X0096017Y0060295D01*
X0095117Y0059395D01*
X0094630Y0058219D01*
X0094630Y0056946D01*
X0095117Y0055770D01*
X0096017Y0054870D01*
X0097193Y0054382D01*
X0098466Y0054382D01*
X0099642Y0054870D01*
X0100542Y0055770D01*
X0101030Y0056946D01*
X0101030Y0057530D01*
X0105782Y0062282D01*
X0120407Y0062282D01*
X0122007Y0060682D01*
X0124477Y0060682D01*
X0125277Y0059882D01*
X0111877Y0059882D01*
X0110530Y0058535D01*
X0099777Y0047782D01*
X0099193Y0047782D01*
X0098017Y0047295D01*
X0097117Y0046395D01*
X0096630Y0045219D01*
X0096630Y0043946D01*
X0097117Y0042770D01*
X0098017Y0041870D01*
X0099193Y0041382D01*
X0100466Y0041382D01*
X0101642Y0041870D01*
X0102330Y0042557D01*
X0103017Y0041870D01*
X0104193Y0041382D01*
X0104630Y0041382D01*
X0104630Y0040946D01*
X0104656Y0040882D01*
X0052782Y0040882D01*
X0029730Y0063935D01*
X0029730Y0066430D01*
X0036530Y0059630D01*
X0036530Y0059630D01*
X0037877Y0058282D01*
X0084530Y0058282D01*
X0084530Y0054630D01*
X0085530Y0053630D01*
X0085530Y0049808D01*
X0085117Y0049395D01*
X0084630Y0048219D01*
X0084630Y0046946D01*
X0085117Y0045770D01*
X0086017Y0044870D01*
X0087193Y0044382D01*
X0088466Y0044382D01*
X0089642Y0044870D01*
X0090542Y0045770D01*
X0091030Y0046946D01*
X0091030Y0048219D01*
X0090542Y0049395D01*
X0090130Y0049808D01*
X0090130Y0055535D01*
X0089130Y0056535D01*
X0089130Y0067632D01*
X0091380Y0067632D01*
X0094280Y0070532D01*
X0094280Y0074633D01*
X0093630Y0075282D01*
X0105029Y0075282D01*
X0104380Y0074633D01*
X0104380Y0072582D01*
X0104380Y0070532D01*
X0107279Y0067632D01*
X0109330Y0067632D01*
X0111380Y0067632D01*
X0114280Y0070532D01*
X0114280Y0072582D01*
X0109330Y0072582D01*
X0109330Y0072582D01*
X0109330Y0067632D01*
X0109330Y0072582D01*
X0109330Y0072582D01*
X0114280Y0072582D01*
X0114280Y0074633D01*
X0113630Y0075282D01*
X0132330Y0075282D01*
X0132330Y0073917D02*
X0114280Y0073917D01*
X0114280Y0072318D02*
X0132330Y0072318D01*
X0132914Y0070720D02*
X0114280Y0070720D01*
X0112869Y0069121D02*
X0121646Y0069121D01*
X0120048Y0067523D02*
X0089130Y0067523D01*
X0089130Y0065924D02*
X0102919Y0065924D01*
X0101320Y0064326D02*
X0089130Y0064326D01*
X0089130Y0062727D02*
X0099722Y0062727D01*
X0098123Y0061129D02*
X0089130Y0061129D01*
X0089130Y0059530D02*
X0095252Y0059530D01*
X0094630Y0057932D02*
X0089130Y0057932D01*
X0089331Y0056333D02*
X0094883Y0056333D01*
X0096342Y0054735D02*
X0090130Y0054735D01*
X0090130Y0053136D02*
X0105131Y0053136D01*
X0106729Y0054735D02*
X0099317Y0054735D01*
X0100776Y0056333D02*
X0108328Y0056333D01*
X0109926Y0057932D02*
X0101432Y0057932D01*
X0103030Y0059530D02*
X0111525Y0059530D01*
X0104629Y0061129D02*
X0121561Y0061129D01*
X0128230Y0064326D02*
X0136430Y0064326D01*
X0136430Y0065924D02*
X0128230Y0065924D01*
X0127612Y0067523D02*
X0137048Y0067523D01*
X0134512Y0069121D02*
X0126013Y0069121D01*
X0109330Y0069121D02*
X0109330Y0069121D01*
X0109330Y0070720D02*
X0109330Y0070720D01*
X0109330Y0072318D02*
X0109330Y0072318D01*
X0109329Y0072582D02*
X0104380Y0072582D01*
X0109329Y0072582D01*
X0109329Y0072582D01*
X0104380Y0072318D02*
X0094280Y0072318D01*
X0094280Y0073917D02*
X0104380Y0073917D01*
X0104380Y0070720D02*
X0094280Y0070720D01*
X0092869Y0069121D02*
X0105790Y0069121D01*
X0084530Y0057932D02*
X0035733Y0057932D01*
X0036629Y0059530D02*
X0034134Y0059530D01*
X0035031Y0061129D02*
X0032536Y0061129D01*
X0033432Y0062727D02*
X0030937Y0062727D01*
X0031834Y0064326D02*
X0029730Y0064326D01*
X0029730Y0065924D02*
X0030235Y0065924D01*
X0035142Y0067523D02*
X0038048Y0067523D01*
X0037430Y0066905D02*
X0037430Y0065235D01*
X0033582Y0069082D01*
X0034205Y0069082D01*
X0035822Y0069752D01*
X0037060Y0070990D01*
X0037730Y0072607D01*
X0037730Y0077230D01*
X0038930Y0078430D01*
X0038930Y0076082D01*
X0038930Y0073136D01*
X0039038Y0072452D01*
X0039252Y0071793D01*
X0039566Y0071176D01*
X0039973Y0070616D01*
X0040463Y0070126D01*
X0041024Y0069719D01*
X0041488Y0069482D01*
X0040007Y0069482D01*
X0037430Y0066905D01*
X0037430Y0065924D02*
X0036740Y0065924D01*
X0034299Y0069121D02*
X0039646Y0069121D01*
X0039898Y0070720D02*
X0036790Y0070720D01*
X0037610Y0072318D02*
X0039081Y0072318D01*
X0038930Y0073917D02*
X0037730Y0073917D01*
X0037730Y0075515D02*
X0038930Y0075515D01*
X0038930Y0076082D02*
X0043329Y0076082D01*
X0043329Y0076082D01*
X0038930Y0076082D01*
X0038930Y0077114D02*
X0037730Y0077114D01*
X0043330Y0076082D02*
X0047730Y0076082D01*
X0043330Y0076082D01*
X0043330Y0076082D01*
X0047730Y0076082D02*
X0047730Y0079029D01*
X0047621Y0079713D01*
X0047407Y0080371D01*
X0047093Y0080988D01*
X0046879Y0081282D01*
X0057307Y0081282D01*
X0056430Y0080405D01*
X0056430Y0078582D01*
X0056430Y0076760D01*
X0059007Y0074182D01*
X0060830Y0074182D01*
X0062652Y0074182D01*
X0065230Y0076760D01*
X0065230Y0078582D01*
X0060830Y0078582D01*
X0060830Y0078582D01*
X0060830Y0074182D01*
X0060830Y0078582D01*
X0060830Y0078582D01*
X0065230Y0078582D01*
X0065230Y0080405D01*
X0064352Y0081282D01*
X0067307Y0081282D01*
X0066430Y0080405D01*
X0066430Y0076760D01*
X0069007Y0074182D01*
X0069177Y0074182D01*
X0062877Y0067882D01*
X0062252Y0067882D01*
X0060652Y0069482D01*
X0057007Y0069482D01*
X0054430Y0066905D01*
X0054430Y0063260D01*
X0054807Y0062882D01*
X0045852Y0062882D01*
X0046230Y0063260D01*
X0046230Y0066905D01*
X0044001Y0069134D01*
X0044360Y0069191D01*
X0045019Y0069405D01*
X0045636Y0069719D01*
X0046196Y0070126D01*
X0046686Y0070616D01*
X0047093Y0071176D01*
X0047407Y0071793D01*
X0047621Y0072452D01*
X0047730Y0073136D01*
X0047730Y0076082D01*
X0047730Y0075515D02*
X0057674Y0075515D01*
X0056430Y0077114D02*
X0047730Y0077114D01*
X0047730Y0078712D02*
X0056430Y0078712D01*
X0056430Y0078582D02*
X0060829Y0078582D01*
X0056430Y0078582D01*
X0056430Y0080311D02*
X0047427Y0080311D01*
X0039101Y0085106D02*
X0017630Y0085106D01*
X0017630Y0086705D02*
X0075730Y0086705D01*
X0077328Y0088303D02*
X0017630Y0088303D01*
X0017630Y0083508D02*
X0037502Y0083508D01*
X0030334Y0081909D02*
X0026325Y0081909D01*
X0027418Y0080311D02*
X0029242Y0080311D01*
X0028930Y0078712D02*
X0027730Y0078712D01*
X0027730Y0077114D02*
X0028930Y0077114D01*
X0028930Y0075515D02*
X0027730Y0075515D01*
X0027782Y0074882D02*
X0027782Y0074882D01*
X0028748Y0073917D02*
X0028930Y0073917D01*
X0019870Y0070720D02*
X0017630Y0070720D01*
X0017630Y0072318D02*
X0019049Y0072318D01*
X0018930Y0073917D02*
X0017630Y0073917D01*
X0017630Y0075515D02*
X0018930Y0075515D01*
X0018930Y0077114D02*
X0017630Y0077114D01*
X0017630Y0078712D02*
X0018930Y0078712D01*
X0019242Y0080311D02*
X0017630Y0080311D01*
X0017630Y0081909D02*
X0020334Y0081909D01*
X0020116Y0069121D02*
X0017630Y0069121D01*
X0017630Y0067523D02*
X0018530Y0067523D01*
X0018530Y0065924D02*
X0017630Y0065924D01*
X0017630Y0064326D02*
X0018530Y0064326D01*
X0018530Y0062727D02*
X0017630Y0062727D01*
X0017630Y0061129D02*
X0018530Y0061129D01*
X0018530Y0059530D02*
X0017630Y0059530D01*
X0017630Y0057932D02*
X0018530Y0057932D01*
X0018530Y0056333D02*
X0017630Y0056333D01*
X0017630Y0054735D02*
X0018530Y0054735D01*
X0018530Y0053136D02*
X0017630Y0053136D01*
X0017630Y0051538D02*
X0018530Y0051538D01*
X0018530Y0049939D02*
X0017630Y0049939D01*
X0017630Y0048341D02*
X0018530Y0048341D01*
X0018530Y0046742D02*
X0017630Y0046742D01*
X0017630Y0045144D02*
X0018530Y0045144D01*
X0018530Y0043545D02*
X0017630Y0043545D01*
X0017630Y0041947D02*
X0018530Y0041947D01*
X0018530Y0040348D02*
X0017630Y0040348D01*
X0017630Y0038750D02*
X0018530Y0038750D01*
X0018530Y0037151D02*
X0017630Y0037151D01*
X0017630Y0035553D02*
X0018530Y0035553D01*
X0018530Y0033954D02*
X0017630Y0033954D01*
X0017630Y0032356D02*
X0018530Y0032356D01*
X0018530Y0030757D02*
X0017630Y0030757D01*
X0017630Y0029159D02*
X0018530Y0029159D01*
X0017630Y0027560D02*
X0019599Y0027560D01*
X0020930Y0025962D02*
X0017630Y0025962D01*
X0017630Y0024363D02*
X0020930Y0024363D01*
X0021425Y0022765D02*
X0017630Y0022765D01*
X0017630Y0021166D02*
X0022191Y0021166D01*
X0020930Y0019568D02*
X0017630Y0019568D01*
X0017630Y0017969D02*
X0020930Y0017969D01*
X0020930Y0016370D02*
X0017630Y0016370D01*
X0017630Y0014772D02*
X0022417Y0014772D01*
X0025330Y0011575D02*
X0025330Y0011575D01*
X0028060Y0011575D02*
X0052600Y0011575D01*
X0055330Y0011575D02*
X0055330Y0011575D01*
X0058060Y0011575D02*
X0082600Y0011575D01*
X0085330Y0011575D02*
X0085330Y0011575D01*
X0088060Y0011575D02*
X0112600Y0011575D01*
X0115330Y0011575D02*
X0115330Y0011575D01*
X0118060Y0011575D02*
X0142600Y0011575D01*
X0145330Y0011575D02*
X0145330Y0011575D01*
X0145330Y0009976D02*
X0145330Y0009976D01*
X0145330Y0008378D02*
X0145330Y0008378D01*
X0145329Y0008082D02*
X0145329Y0008082D01*
X0140930Y0008082D01*
X0145329Y0008082D01*
X0140930Y0008378D02*
X0119730Y0008378D01*
X0119730Y0006779D02*
X0140930Y0006779D01*
X0141001Y0009976D02*
X0119658Y0009976D01*
X0115330Y0009976D02*
X0115330Y0009976D01*
X0115330Y0008378D02*
X0115330Y0008378D01*
X0115329Y0008082D02*
X0115329Y0008082D01*
X0110930Y0008082D01*
X0115329Y0008082D01*
X0110930Y0008378D02*
X0089730Y0008378D01*
X0089730Y0006779D02*
X0110930Y0006779D01*
X0111001Y0009976D02*
X0089658Y0009976D01*
X0085330Y0009976D02*
X0085330Y0009976D01*
X0085330Y0008378D02*
X0085330Y0008378D01*
X0085329Y0008082D02*
X0085329Y0008082D01*
X0080930Y0008082D01*
X0085329Y0008082D01*
X0080930Y0008378D02*
X0059730Y0008378D01*
X0059730Y0006779D02*
X0080930Y0006779D01*
X0081001Y0009976D02*
X0059658Y0009976D01*
X0055330Y0009976D02*
X0055330Y0009976D01*
X0055330Y0008378D02*
X0055330Y0008378D01*
X0055329Y0008082D02*
X0055329Y0008082D01*
X0050930Y0008082D01*
X0055329Y0008082D01*
X0050930Y0008378D02*
X0029730Y0008378D01*
X0029730Y0006779D02*
X0050930Y0006779D01*
X0051001Y0009976D02*
X0029658Y0009976D01*
X0025330Y0009976D02*
X0025330Y0009976D01*
X0025330Y0008378D02*
X0025330Y0008378D01*
X0028242Y0014772D02*
X0052417Y0014772D01*
X0050930Y0016370D02*
X0029730Y0016370D01*
X0029730Y0017969D02*
X0050930Y0017969D01*
X0050930Y0019568D02*
X0029730Y0019568D01*
X0028469Y0021166D02*
X0039523Y0021166D01*
X0037925Y0022765D02*
X0029234Y0022765D01*
X0029730Y0024363D02*
X0037430Y0024363D01*
X0037430Y0025962D02*
X0029730Y0025962D01*
X0044136Y0021166D02*
X0052191Y0021166D01*
X0054925Y0022765D02*
X0045734Y0022765D01*
X0046230Y0024363D02*
X0054430Y0024363D01*
X0054430Y0025962D02*
X0046230Y0025962D01*
X0059730Y0019568D02*
X0080930Y0019568D01*
X0080930Y0017969D02*
X0059730Y0017969D01*
X0059730Y0016370D02*
X0080930Y0016370D01*
X0082417Y0014772D02*
X0058242Y0014772D01*
X0061136Y0021166D02*
X0072023Y0021166D01*
X0070425Y0022765D02*
X0062734Y0022765D01*
X0063230Y0024363D02*
X0069796Y0024363D01*
X0068198Y0025962D02*
X0063230Y0025962D01*
X0089730Y0019568D02*
X0102592Y0019568D01*
X0110930Y0017969D02*
X0089730Y0017969D01*
X0089730Y0016370D02*
X0110930Y0016370D01*
X0112417Y0014772D02*
X0088242Y0014772D01*
X0118242Y0014772D02*
X0142417Y0014772D01*
X0140930Y0016370D02*
X0119730Y0016370D01*
X0119730Y0017969D02*
X0140930Y0017969D01*
X0140930Y0019568D02*
X0139067Y0019568D01*
X0144734Y0022765D02*
X0146759Y0022765D01*
X0145230Y0024363D02*
X0148358Y0024363D01*
X0149956Y0025962D02*
X0145230Y0025962D01*
X0144574Y0027560D02*
X0154085Y0027560D01*
X0155683Y0029159D02*
X0142976Y0029159D01*
X0138683Y0029159D02*
X0125976Y0029159D01*
X0127574Y0027560D02*
X0137085Y0027560D01*
X0136430Y0025962D02*
X0128230Y0025962D01*
X0128230Y0024363D02*
X0136430Y0024363D01*
X0151666Y0021166D02*
X0155523Y0021166D01*
X0178242Y0014772D02*
X0182730Y0014772D01*
X0182730Y0016370D02*
X0179730Y0016370D01*
X0179730Y0017969D02*
X0182730Y0017969D01*
X0182730Y0019568D02*
X0179730Y0019568D01*
X0178469Y0021166D02*
X0182730Y0021166D01*
X0182730Y0022765D02*
X0178734Y0022765D01*
X0179230Y0024363D02*
X0182730Y0024363D01*
X0182730Y0025962D02*
X0179230Y0025962D01*
X0178574Y0027560D02*
X0182730Y0027560D01*
X0182730Y0009976D02*
X0179658Y0009976D01*
X0179730Y0008378D02*
X0182730Y0008378D01*
X0182730Y0006779D02*
X0179730Y0006779D01*
X0102940Y0041947D02*
X0101719Y0041947D01*
X0097940Y0041947D02*
X0051718Y0041947D01*
X0050119Y0043545D02*
X0096796Y0043545D01*
X0096630Y0045144D02*
X0089916Y0045144D01*
X0090945Y0046742D02*
X0097464Y0046742D01*
X0100335Y0048341D02*
X0090979Y0048341D01*
X0090130Y0049939D02*
X0101934Y0049939D01*
X0103532Y0051538D02*
X0090130Y0051538D01*
X0085530Y0051538D02*
X0042127Y0051538D01*
X0040528Y0053136D02*
X0085530Y0053136D01*
X0084530Y0054735D02*
X0038930Y0054735D01*
X0037331Y0056333D02*
X0084530Y0056333D01*
X0085530Y0049939D02*
X0043725Y0049939D01*
X0045324Y0048341D02*
X0084680Y0048341D01*
X0084714Y0046742D02*
X0046922Y0046742D01*
X0048521Y0045144D02*
X0085743Y0045144D01*
X0054430Y0064326D02*
X0046230Y0064326D01*
X0046230Y0065924D02*
X0054430Y0065924D01*
X0055048Y0067523D02*
X0045612Y0067523D01*
X0044013Y0069121D02*
X0056646Y0069121D01*
X0061013Y0069121D02*
X0064116Y0069121D01*
X0065714Y0070720D02*
X0046761Y0070720D01*
X0047578Y0072318D02*
X0067313Y0072318D01*
X0068911Y0073917D02*
X0047730Y0073917D01*
X0060830Y0075515D02*
X0060830Y0075515D01*
X0060830Y0077114D02*
X0060830Y0077114D01*
X0060829Y0078582D02*
X0060829Y0078582D01*
X0065230Y0078712D02*
X0066430Y0078712D01*
X0066430Y0077114D02*
X0065230Y0077114D01*
X0063985Y0075515D02*
X0067674Y0075515D01*
X0066430Y0080311D02*
X0065230Y0080311D01*
X0114744Y0081909D02*
X0115280Y0081909D01*
X0115030Y0080311D02*
X0116879Y0080311D01*
X0170887Y0088303D02*
X0174773Y0088303D01*
X0177630Y0088303D02*
X0178030Y0088303D01*
X0178030Y0086705D02*
X0177630Y0086705D01*
X0177630Y0085106D02*
X0178030Y0085106D01*
X0173174Y0086705D02*
X0172485Y0086705D01*
X0180887Y0088303D02*
X0182730Y0088303D01*
X0182730Y0086705D02*
X0182485Y0086705D01*
D17*
X0162830Y0090082D03*
X0127330Y0081082D03*
X0124830Y0072082D03*
X0086330Y0088082D03*
X0051830Y0089582D03*
X0050330Y0073082D03*
X0049830Y0055082D03*
D18*
X0086330Y0088082D02*
X0089830Y0091582D01*
X0158830Y0091582D01*
X0160330Y0090082D01*
X0162830Y0090082D01*
M02*
