%
M48
M72
T01C0.01200
T02C0.01969
T03C0.03200
T04C0.04000
%
T01
X71830Y30582
X99830Y44582
X104830Y44582
X107830Y41582
X110830Y38582
X103830Y35582
X120830Y29582
X126830Y35582
X106830Y23582
X150830Y42582
X164830Y54582
X144830Y60582
X111830Y80582
X97830Y57582
X90830Y55582
X87830Y47582
X35830Y48582
T02
X49830Y55082
X50330Y73082
X51830Y89582
X86330Y88082
X124830Y72082
X127330Y81082
X162830Y90082
T03
X25330Y8082
X25330Y18082
X25330Y25082
X41830Y25082
X55330Y18082
X58830Y25082
X74330Y25082
X85330Y18082
X85330Y8082
X115330Y8082
X115330Y18082
X123830Y25082
X140830Y25082
X145330Y18082
X157830Y25082
X174830Y25082
X175330Y18082
X175330Y8082
X145330Y8082
X55330Y8082
X58830Y65082
X74330Y65082
X89330Y72582
X70830Y78582
X60830Y78582
X43330Y76082
X33330Y76082
X23330Y76082
X25330Y65082
X41830Y65082
X79330Y84082
X109330Y72582
X123830Y65082
X140830Y65082
X157830Y65082
X174830Y65082
X119330Y84082
T04
X137830Y83582
X147830Y83582
X157830Y83582
X167830Y83582
X177830Y83582
X177830Y73582
X167830Y73582
X157830Y73582
X147830Y73582
X137830Y73582
M30
